<?xml version="1.0" encoding="UTF-8" standalone="no"?>
<svg
   width="400"
   height="400"
   viewBox="0 0 400 400"
   version="1.1"
   id="svg5"
   sodipodi:docname="julia-brasil.svg"
   inkscape:version="1.4 (e7c3feb100, 2024-10-09)"
   inkscape:export-filename="julia-brasil.png"
   inkscape:export-xdpi="96"
   inkscape:export-ydpi="96"
   xmlns:inkscape="http://www.inkscape.org/namespaces/inkscape"
   xmlns:sodipodi="http://sodipodi.sourceforge.net/DTD/sodipodi-0.dtd"
   xmlns="http://www.w3.org/2000/svg"
   xmlns:svg="http://www.w3.org/2000/svg">
  <defs
     id="defs5" />
  <sodipodi:namedview
     id="namedview5"
     pagecolor="#ffffff"
     bordercolor="#000000"
     borderopacity="0.25"
     inkscape:showpageshadow="2"
     inkscape:pageopacity="0.0"
     inkscape:pagecheckerboard="0"
     inkscape:deskcolor="#d1d1d1"
     inkscape:zoom="1.71875"
     inkscape:cx="145.74545"
     inkscape:cy="194.61818"
     inkscape:window-width="1920"
     inkscape:window-height="1043"
     inkscape:window-x="1920"
     inkscape:window-y="0"
     inkscape:window-maximized="1"
     inkscape:current-layer="svg5" />
  <g
     id="g1"
     transform="translate(20.363636,16.872727)">
    <path
       fill-rule="nonzero"
       fill="#000000"
       fill-opacity="1"
       d="m 87.136661,239.53648 c 0,7.53516 -0.84765,13.62109 -2.54297,18.25391 -1.69531,4.63671 -4.10547,8.23437 -7.23437,10.79687 -3.124999,2.5625 -6.874999,4.27734 -11.246099,5.14453 -4.37109,0.86328 -9.23437,1.29688 -14.58203,1.29688 -7.23828,0 -12.77734,-1.12891 -16.61718,-3.39063 -3.84375,-2.26172 -5.76563,-4.97265 -5.76563,-8.14062 0,-2.63672 1.07031,-4.85938 3.21875,-6.66797 2.14844,-1.8086 5.03125,-2.71094 8.64844,-2.71094 2.71484,0 4.88281,0.73438 6.5,2.20313 1.62109,1.46875 2.96094,2.92187 4.01562,4.35156 1.20313,1.58203 2.22266,2.63672 3.05078,3.16406 0.82813,0.52734 1.58204,0.79297 2.26172,0.79297 1.42969,0 2.52344,-0.84766 3.27735,-2.54297 0.7539,-1.69531 1.1289,-4.99219 1.1289,-9.89062 v -92.92188 l 25.886719,-7.12109 z m 36.867199,-84.89844 v 59.80078 c 0,1.66016 0.32031,3.22266 0.96094,4.69141 0.64062,1.46875 1.52734,2.73437 2.65625,3.78906 1.13281,1.05469 2.44922,1.90235 3.95703,2.54297 1.50781,0.64063 3.12891,0.96094 4.86328,0.96094 1.95703,0 4.1836,-1.09766 6.89453,-2.9961 4.29297,-3.00781 6.89453,-5.07421 6.89453,-7.51953 v -61.26953 h 25.77344 v 84.89844 h -25.77344 v -7.91406 c -3.39062,2.86328 -7.00781,5.16015 -10.85156,6.89453 -3.84375,1.73437 -7.57422,2.60156 -11.1914,2.60156 -4.21875,0 -8.14063,-0.69922 -11.75782,-2.09375 -3.61719,-1.39453 -6.78125,-3.29687 -9.49219,-5.70703 -2.71484,-2.41016 -4.84375,-5.23828 -6.39063,-8.48047 -1.542969,-3.23828 -2.316409,-6.70703 -2.316409,-10.39844 v -59.80078 z m 88.14453,84.89844 H 186.48824 V 120.50132 l 25.66015,-7.12109 z m 10.71875,-80.26172 25.77344,-7.12109 v 87.38281 h -25.77344 z m 79.625,36.39844 c -2.48828,1.05859 -4.99609,2.28125 -7.51953,3.67578 -2.52344,1.39453 -4.82422,2.92187 -6.89453,4.57812 -2.07422,1.65625 -3.75,3.42969 -5.03125,5.3125 -1.28125,1.88282 -1.92188,3.84375 -1.92188,5.87891 0,1.58203 0.20704,3.10938 0.6211,4.57813 0.41406,1.46875 1,2.73046 1.7539,3.78515 0.75391,1.05469 1.58204,1.90235 2.48829,2.54297 0.90234,0.64063 1.88281,0.96094 2.9375,0.96094 2.10937,0 4.23828,-0.64063 6.38671,-1.92188 2.14844,-1.28125 4.53907,-2.89843 7.17969,-4.85937 z m 25.88281,43.86328 h -25.88281 v -6.78516 c -1.43359,1.20703 -2.82812,2.32032 -4.18359,3.33594 -1.35547,1.01563 -2.88281,1.90234 -4.57813,2.65625 -1.69531,0.75391 -3.59765,1.33594 -5.71093,1.75391 -2.10938,0.41406 -4.59766,0.62109 -7.45704,0.62109 -3.92187,0 -7.44531,-0.56641 -10.57031,-1.69531 -3.1289,-1.13281 -5.78515,-2.67578 -7.96875,-4.63672 -2.1875,-1.95703 -3.86328,-4.27734 -5.03125,-6.95313 -1.16797,-2.67187 -1.7539,-5.59375 -1.7539,-8.75781 0,-3.24219 0.62109,-6.17969 1.86718,-8.82031 1.24219,-2.63672 2.9375,-5.00781 5.08594,-7.12109 2.14844,-2.10938 4.65234,-3.99219 7.51563,-5.65235 2.86328,-1.65625 5.9375,-3.18359 9.21484,-4.57812 3.27734,-1.39453 6.6875,-2.67188 10.23047,-3.83985 3.53906,-1.16797 7.04687,-2.28125 10.51172,-3.33593 l 2.82812,-0.67969 v -8.36328 c 0,-5.42578 -1.03906,-9.26953 -3.10937,-11.53125 -2.07422,-2.26172 -4.84375,-3.39063 -8.3086,-3.39063 -4.07031,0 -6.89843,0.98047 -8.48047,2.9375 -1.58203,1.96094 -2.375,4.33203 -2.375,7.1211 0,1.58203 -0.16796,3.1289 -0.50781,4.63672 -0.33594,1.50781 -0.92187,2.82421 -1.75,3.95703 -0.82812,1.1289 -2.01562,2.03515 -3.5625,2.71093 -1.54297,0.67969 -3.48437,1.01953 -5.82031,1.01953 -3.61719,0 -6.55469,-1.03906 -8.81641,-3.10937 -2.26172,-2.07422 -3.39062,-4.69141 -3.39062,-7.85937 0,-2.9375 0.99609,-5.66797 2.99219,-8.19141 2,-2.52734 4.6914,-4.69531 8.08593,-6.5 3.39063,-1.8125 7.3086,-3.24219 11.75391,-4.29688 4.44531,-1.05469 9.15625,-1.58203 14.12891,-1.58203 6.10546,0 11.36328,0.54688 15.77343,1.63672 4.40625,1.09375 8.04297,2.65625 10.90625,4.69141 2.86328,2.03515 4.97266,4.48437 6.32813,7.34765 1.35937,2.86329 2.03515,6.07032 2.03515,9.60938 z m 0,0"
       id="path1" />
    <path
       fill-rule="nonzero"
       fill="#4063d8"
       fill-opacity="1"
       d="m 92.218691,130.31382 c 0,9.66797 -7.83593,17.5 -17.499999,17.5 -9.66406,0 -17.5,-7.83203 -17.5,-17.5 0,-9.66406 7.83594,-17.5 17.5,-17.5 9.664069,0 17.499999,7.83594 17.499999,17.5 z m 0,0"
       id="path2" />
    <path
       fill-rule="nonzero"
       fill="#389826"
       fill-opacity="1"
       d="m 275.56636,93.895858 c 0,9.664062 -7.83594,17.499992 -17.5,17.499992 -9.66797,0 -17.5,-7.83593 -17.5,-17.499992 0,-9.664063 7.83203,-17.5 17.5,-17.5 9.66406,0 17.5,7.835937 17.5,17.5 z m 0,0"
       id="path3" />
    <path
       fill-rule="nonzero"
       fill="#9558b2"
       fill-opacity="1"
       d="m 296.58589,130.31382 c 0,9.66797 -7.83594,17.5 -17.5,17.5 -9.66406,0 -17.5,-7.83203 -17.5,-17.5 0,-9.66406 7.83594,-17.5 17.5,-17.5 9.66406,0 17.5,7.83594 17.5,17.5 z m 0,0"
       id="path4" />
    <path
       fill-rule="nonzero"
       fill="#cb3c33"
       fill-opacity="1"
       d="m 254.53902,130.31382 c 0,9.66797 -7.83594,17.5 -17.5,17.5 -9.66797,0 -17.5,-7.83203 -17.5,-17.5 0,-9.66406 7.83203,-17.5 17.5,-17.5 9.66406,0 17.5,7.83594 17.5,17.5 z m 0,0"
       id="path5" />
  </g>
  <path
     fill="#fff"
     stroke="#000000"
     stroke-width="0.487633"
     d="m 97.710466,176.74903 c 0.312233,0.62447 0.936706,0.93671 1.405059,1.40506 0.312233,0.46835 0.624467,1.09282 0.936695,1.71729 0.31224,0.62447 0.93671,1.09282 0.93671,1.71729 0,0.46835 -0.78059,0.78058 -0.93671,1.24894 0,0.31224 0,0.62447 0.15612,1.09282 l 0.46836,0.46835 c 0.62446,0 0.78058,-0.62447 1.24894,-0.9367 h 0.78058 c 0.31224,0.15612 0.31224,0.78059 0.62447,0.78059 0.15612,0.15611 0.46835,-0.46836 0.78059,-0.31224 0.31224,0 0.62447,0.15612 0.78059,0.46835 0.46835,0.62448 0.31223,1.40506 0.78059,2.02953 0.31223,0.46835 0.9367,0.62447 1.56117,0.7806 0.46835,0 1.09282,-0.15613 1.40506,-0.46836 0.46835,-0.46835 0.46835,-1.09283 0.78058,-1.40506 0.31224,-0.31223 0.78059,-0.15612 1.09282,-0.31223 0.31224,-0.15612 0.62448,-0.46836 1.09283,-0.62448 0.15611,-0.15611 0.62447,-0.62447 0.78059,-0.46835 0.46835,0.62447 0.31223,1.40506 0.31223,2.02953 0.15612,1.8734 -0.46835,3.90294 0.15612,5.62023 0.15611,0.62447 1.09282,0.46835 1.71729,0.31223 0.62447,-0.15611 1.09282,-0.78059 1.71729,-0.78059 0.78059,-0.15611 1.56118,0 2.18565,0 0.9367,0.15613 2.02952,0.15613 2.96623,0.15613 1.09282,0.15611 2.18564,0.31223 3.27846,0 0.46836,0 0.93671,-0.62448 1.09282,-1.09284 0.31224,-0.31222 0,-0.93669 0.31224,-1.24893 0.15612,-0.15612 0.78059,-0.15612 1.09282,-0.15612 0.31224,0 0.46836,0.46836 0.62448,0.31224 0.62446,-0.15612 1.09282,-0.62447 1.40505,-0.93671 0.46835,-0.46835 0.62447,-1.24894 1.09282,-1.56117 0.31224,-0.15612 0.62447,0.46835 0.78059,0.31223 0.46836,-0.31223 0.62446,-0.9367 0.9367,-1.40505 0.46836,-0.46835 1.09283,-0.93671 1.56118,-1.09283 0.78059,-0.31223 1.71729,-0.46835 2.49788,-0.62447 0.46836,0 0.78059,-0.15611 1.24894,-0.15611 0.46835,0 0.9367,0.15611 1.40505,0.15611 0.31224,0 0.62448,-0.31223 0.93671,-0.31223 0.15612,-0.15612 0.46835,-0.46835 0.62447,-0.15612 0.46834,0.46835 0.62447,1.40506 0.62447,2.02953 0,0.62447 -0.62447,0.93671 -0.62447,1.40506 -0.15612,0.62446 0,1.24894 0.15611,1.71729 0.15613,0.46835 0.62448,0.62447 0.78059,1.09282 0.15612,0.46836 0.15612,0.93671 0,1.40506 -0.15611,0.31224 -0.78059,0.15611 -0.78059,0.46835 0,0.62447 0.31223,1.09282 0.46836,1.56118 0.31223,0.62447 0.31223,1.24893 0.78058,1.8734 0.46836,0.78059 1.09283,1.56118 1.87342,2.02953 0.62447,0.46835 1.40505,0.46835 2.02953,0.7806 0.31223,0.31222 0.1561,1.09281 0.62446,1.40505 0.46835,0.31223 1.09283,0.31223 1.56118,0.15611 0.62447,0 1.09282,-0.15611 1.56117,-0.31224 0.15611,0 0.31224,-0.31223 0.62447,-0.31223 0.62448,0.15612 1.40506,0.62447 2.02953,0.93671 0.46835,0.31223 0.62447,0.93671 1.09282,1.24894 0.46835,0.15612 0.93671,-0.15613 1.24894,0.15612 0.62447,0.15611 0.9367,0.9367 1.56117,1.09282 0.46836,0.31223 1.09283,0.46835 1.56118,0.46835 0.31224,0.15612 0.78059,-0.15612 1.09282,0.15612 0.62447,0.46835 0.9367,1.40506 1.71729,1.87341 0.46835,0.31223 1.24895,0.46835 2.02953,0.31223 0.31223,-0.15612 0.31223,-0.93671 0.78059,-0.93671 0.62446,-0.15611 1.09282,0.31224 1.71729,0.46836 0.46835,0.31223 0.93671,0.62447 1.40506,0.9367 0.62447,0.31224 1.56117,0.46836 1.8734,1.09283 0.31224,0.46835 -0.31223,1.24894 -0.15611,1.87341 0.15611,0.78058 0.78058,1.40505 1.09282,2.18564 0.15612,0.46836 0,1.24894 0,1.87341 0,0.15611 0.15612,0.31224 0,0.46835 -0.46835,0.15612 -0.93671,-0.15611 -1.24894,0 -0.15612,0.15612 0,0.62447 0.15612,0.78059 0.15611,0.31223 0.62447,0.46835 0.78058,0.93671 0.31224,0.62446 0.46836,1.40506 0.46836,2.18564 0.15612,0.62447 0,1.24894 0.15612,1.71729 0.15611,0.62447 0.62446,1.24894 1.09281,1.40505 1.24895,0.31224 2.654,0 4.05906,0 1.24894,0.15613 2.49789,0.15613 3.74681,0.15613 0.31225,0.15611 1.09284,-0.31224 1.09284,0.15611 0.15611,0.46836 -0.78059,0.78059 -0.93671,1.40506 0,0.46835 0.46835,0.78059 0.62447,1.09282 0.31224,0.62447 0.31224,1.40506 0.62447,1.87341 0.31223,0.46835 0.78058,0.62447 1.24893,0.93671 0.46836,0.46835 0.7806,0.9367 1.24895,1.40505 0.46835,0.46835 0.9367,1.09283 1.24894,1.71729 0.31223,0.62448 0.31223,1.24894 0.31223,2.02953 0,0.62447 -0.15611,1.24894 -0.46836,1.87341 -0.15611,0.78059 -0.62446,1.56117 -0.9367,2.34176 -0.15611,0.93671 -0.46835,1.7173 -0.78058,2.49788 -0.15612,0.46835 -0.62448,1.09283 -0.46835,1.56118 0.15611,0.46835 0.78058,0.46835 1.09282,0.62446 0.15611,0.31224 0.31223,0.62447 0.15611,0.78059 -0.15611,0.31224 -0.62446,0 -0.9367,0.31224 -0.31223,0.31224 -0.46836,0.93671 -0.31223,1.40506 0,0.62446 0.46835,1.09281 0.62447,1.71729 0.15611,0.31223 0.31223,0.62447 0.46835,1.09282 0.15611,0.31223 0.46835,0.62447 0.46835,1.09282 0.15612,0.62447 0.15612,1.24894 0,2.02953 0,0.31223 -0.15612,0.62447 -0.31224,1.09282 0,0.31224 0.15612,0.78059 0.15612,1.09282 0,0.46835 -0.31223,0.93671 -0.31223,1.40506 0,0.46835 0,1.09282 0.46835,1.40506 0.46835,0.15611 0.93671,-0.46835 1.40506,-0.46835 0.46835,0 1.09282,0.15611 1.71729,0.15611 0.46835,0.15612 1.09282,0 1.56117,0.15612 0.46836,0 0.7806,0.31223 1.09282,0.31223 0.31223,0.15612 0.78059,0.31225 1.09283,0.31225 0.31224,-0.15613 0.31224,-1.09284 0.78059,-0.93671 0.46834,0 0.46834,0.78058 0.9367,1.09282 0.62447,0.31223 1.56117,0 2.18564,0.31223 0.46836,0.46835 0.78059,1.40506 0.93671,2.02953 0.46835,1.24894 0.46835,2.34176 0.78058,3.5907 0.15613,0.62447 0.15613,1.56117 0.7806,2.02953 0.31223,0.31223 1.09282,0.31223 1.71729,0.46835 0.78058,0 1.56117,-0.31223 2.18564,-0.15612 0.62447,0.15612 1.56118,0.46835 1.71729,1.09283 0.31224,0.78058 -0.62447,1.56117 -0.62447,2.34176 0,0.62447 0.46836,1.09282 0.31223,1.71729 0,0.46835 -0.46835,0.93671 -0.46835,1.56117 -0.15612,0.31223 0.46835,0.46836 0.31224,0.78059 -0.15612,0.31224 -0.62447,0.15612 -0.78058,0.46835 -0.15613,0.31224 -0.15613,0.78059 0,1.24894 0,0.46835 0,0.93671 0.46834,1.09283 0.62448,0.15611 1.56118,-0.62448 2.18564,-0.31224 0.78059,0.46835 1.09284,1.56118 1.40507,2.34176 0.31223,0.46835 0.46835,1.09282 0.46835,1.56118 -0.15612,0.31223 -0.62447,0.46835 -0.62447,0.78058 -0.15611,0.46835 0.15612,0.93671 0.15612,1.56118 0,0.46835 -0.15612,0.9367 -0.31223,1.40506 -0.31225,0.62447 -0.46836,1.09281 -0.93671,1.56116 -0.31224,0.31224 -0.62448,0.46836 -1.09282,0.62448 -0.46836,0.15612 -1.09283,0 -1.71729,0.15612 -0.62448,0.31224 -1.09283,0.9367 -1.56119,1.24894 -0.46835,0.31223 -0.78058,0.78058 -1.24894,1.09282 -0.62446,0.46835 -1.40505,0.78059 -2.18563,1.24894 -0.31224,0.31223 -0.46836,0.78059 -0.93671,1.24894 -0.31223,0.46835 -0.78058,0.9367 -1.09283,1.40505 -0.31223,0.31224 -0.46835,0.62448 -0.78058,0.93671 -0.46835,0.46835 -0.9367,0.62447 -1.40506,0.93671 -0.31224,0.46835 -0.46835,1.09281 -0.78058,1.40505 -0.31224,0.46835 -0.78059,0.62447 -1.09283,1.09282 -0.31223,0.46836 -0.31223,1.24895 -0.78059,1.7173 -0.46835,0.46835 -1.24893,0.31223 -1.56117,0.78059 -0.46835,0.31223 -0.46835,0.9367 -0.62447,1.40506 -0.15612,0.31223 -0.46835,0.78058 -0.15612,0.9367 0.31224,0.31223 0.78059,-0.31224 1.09283,-0.15612 0.31223,0 0.46835,0.46835 0.62447,0.46835 0.31224,0 0.46834,-0.31223 0.62446,-0.46835 0.15613,-0.15612 0.15613,-0.46835 0.31223,-0.62447 0.31225,-0.15611 0.7806,-0.31224 1.09284,-0.31224 0.31223,0 0.31223,0.46836 0.62446,0.62447 0.15612,0.15612 0.46835,0.15612 0.62447,0.31224 0.31224,0.31223 0.15612,0.78058 0.46836,1.09282 0.31223,0.31223 0.9367,0.31223 1.09282,0.46836 0.31223,0.31223 0.31223,0.78058 0.46835,1.09281 0.15611,0.46835 0.31223,0.93671 0.46836,1.09283 0.1561,0.15612 0.46835,0.15612 0.78058,0 0.15612,0 0.46835,-0.15612 0.78058,-0.31224 0.15613,-0.15611 0.31224,-0.15611 0.31224,-0.31224 0.15612,-0.15611 0,-0.46835 0,-0.62446 0.15612,-0.15612 0.31223,-0.15612 0.46836,-0.15612 0.31223,0 0.9367,0 0.9367,0.31223 0.15612,0.31224 -0.46835,0.62448 -0.62447,0.93671 0,0.31224 0.15612,0.62447 0.31223,0.78059 0.46836,0.62447 1.09283,1.24894 1.87341,1.56117 0.46835,0.31223 1.24894,0.31223 1.71729,0.62447 0.46835,0.31223 0.93671,0.78059 1.24895,1.09282 0.31223,0.46835 0.46835,0.9367 0.9367,1.24894 0.46835,0.46836 1.24894,0.46836 1.7173,1.09283 0.62446,0.46834 0.62446,1.40505 1.09281,2.02953 1.24895,1.71729 2.96624,0.78058 1.7173,2.81011 0,0.15611 -0.31224,0.31223 -0.46835,0.46835 -0.31224,0.15611 -0.46836,0.15611 -0.62448,0.31223 -0.15612,0.31223 -0.31223,0.46836 -0.31223,0.78059 0,0.31224 -0.15612,0.78059 0,1.24894 0,0.31223 0.31223,0.62447 0.46835,0.78059 0.31223,0.15611 0.46836,0.15611 0.78059,0 0.15612,0 0.31223,-0.31224 0.46835,-0.46836 0.46835,-0.15611 0.93671,-0.31223 1.24894,-0.46834 0.46835,-0.31224 1.09282,-0.62448 1.40506,-1.09283 0.31223,-0.31223 0.31223,-0.78059 0.31223,-1.24894 0.15612,-0.31223 0.15612,-0.62447 0.15612,-0.93671 0.15612,-0.31223 0.31223,-0.62447 0.31223,-0.9367 0.31224,-0.62447 0.78059,-1.24893 0.78059,-1.87341 0.15612,-0.31223 -0.31224,-0.62447 -0.31224,-1.09282 0,-0.31223 0.31224,-0.46835 0.31224,-0.62447 0.15612,-0.46836 0.15612,-0.9367 0.46836,-1.40506 0.31223,-0.62447 0.9367,-1.40506 1.40505,-2.02953 0.31224,-0.31223 0.78059,-0.31223 0.93671,-0.46835 0.31223,-0.15611 0.46835,-0.31224 0.62447,-0.62447 0.15611,-0.31223 0,-0.78058 0.15611,-1.24893 0.15612,-0.46836 0.62447,-0.7806 0.78059,-1.24895 0.15612,-0.31223 0.46835,-0.46835 0.46835,-0.93671 0,-0.1561 -0.31223,-0.31223 -0.31223,-0.46834 -0.31224,-0.31224 -0.46836,-0.62447 -0.62447,-1.09282 0,-0.15612 -0.15612,-0.31224 0,-0.46836 0.46835,0 0.9367,0 1.24894,0.31224 0.46835,0.46835 0.31224,1.09282 0.62447,1.56118 0.31223,0.31223 0.62447,0.46835 0.78058,0.46835 0.31224,0 0.15612,-0.31225 0.15612,-0.46835 0.15612,-0.15613 0,-0.62448 0.15612,-0.46836 0.31224,0 0.31224,0.46836 0.62447,0.62446 0.15612,0 0.31224,-0.46834 0.46835,-0.31223 0.15612,0.15613 0.15612,0.46836 0,0.78059 -0.15611,0.15612 -0.78058,0 -0.93671,0.31224 -0.15611,0.15611 0.15613,0.62446 0,0.9367 -0.15611,0.31224 -0.46835,0.46836 -0.78058,0.93671 -0.15612,0.15611 0,0.46835 -0.31223,0.62447 -0.46835,0.31223 -1.24895,0 -1.56118,0.46834 -0.31224,0.46836 0.31223,1.24895 0.15612,1.7173 -0.15612,0.31224 -0.78059,0.15612 -1.09282,0.31224 -0.31224,0.15611 -0.46836,0.46835 -0.62447,0.62446 -0.46836,0.46835 -1.24895,0.78059 -1.7173,1.24895 -0.15611,0.31223 -0.15611,0.78058 0,1.09281 0.31224,0.31224 0.9367,0.46835 1.24894,0.15612 0.31224,0 0.31224,-0.62446 0.62447,-0.9367 0.31224,-0.31223 0.78059,-0.62447 1.09282,-0.9367 0.62447,-0.31224 1.09283,-0.62448 1.56118,-1.09283 0.46835,-0.31223 0.62447,-0.78059 0.9367,-1.09282 0.46835,-0.46835 0.93671,-0.46835 1.24895,-0.78059 0.46835,-0.62447 0.78058,-1.24894 1.09282,-2.02952 0.31223,-0.31224 0.62447,-0.78059 0.62447,-1.24894 0.31223,-0.62447 0.31223,-1.24894 0.46835,-1.87341 0,-0.15612 -0.15612,-0.46835 0,-0.62447 0.15612,-0.31224 0.62447,-0.31224 0.78058,-0.62447 0.15613,-0.15611 0.15613,-0.46836 0.31224,-0.62447 0.31224,-0.46835 0.78059,-0.46835 0.9367,-0.9367 0.15612,-0.31224 -0.31223,-0.78059 -0.31223,-1.09284 0,-0.1561 0,-0.46834 0.15612,-0.46834 0.31223,0 0.62446,0.31224 1.09282,0.31224 0.31224,-0.15613 0.46835,-0.62448 0.62447,-0.78059 0.31223,-0.46836 0.62447,-0.78059 0.9367,-1.09283 0.62448,-0.31223 1.24894,-0.31223 1.87342,-0.62447 0.31223,-0.31223 0.62446,-0.78058 0.9367,-1.24893 0.15611,-0.31224 0.46835,-0.62448 0.62447,-0.93671 0.15611,-0.62447 0,-1.24894 0.15611,-1.71729 0.15612,-0.78059 0.62448,-1.40505 0.62448,-2.18565 0.15611,-0.46835 -0.31224,-0.62446 -0.31224,-1.09282 0.15611,-0.46835 0.78059,-0.9367 0.78059,-1.56117 0,-0.31223 -0.46835,-0.62447 -0.46835,-0.93671 -0.15613,-0.62446 -0.15613,-1.24894 -0.15613,-1.87341 0,-0.62447 0,-1.09282 0.15613,-1.71729 0,-0.78058 0.15611,-1.40506 0.46835,-2.18564 0.15612,-0.46836 0.93671,-0.62447 0.93671,-1.24894 0,-0.31224 -0.62448,-0.46835 -0.93671,-0.78059 v -0.46836 c 0.15612,-0.15611 0.31223,-0.31223 0.46836,-0.46835 0.62446,0 1.24893,1.09282 1.8734,0.93671 0.9367,-0.15612 0.78059,-1.56117 1.24894,-2.18565 0.62447,-0.62446 1.24894,-0.9367 2.02952,-1.40505 0.78059,-0.62447 1.7173,-1.09282 2.65401,-1.71729 0.46835,-0.31224 0.9367,-0.78059 1.40505,-1.09283 0.31224,-0.31223 0.62447,-0.62446 1.09282,-0.78059 0.46836,-0.31223 1.09282,-0.46835 1.71729,-0.78058 0.46836,-0.31224 0.93671,-0.93671 1.56118,-0.93671 0.62447,-0.15611 1.40506,0.31224 2.02953,0.31224 0.62447,0 1.40505,0 1.8734,-0.31224 0.62447,-0.31223 0.7806,-1.09282 1.24895,-1.40505 0.46835,-0.46835 1.24894,-0.46835 1.71729,-0.93671 0.31223,-0.31223 0.15612,-0.78058 0.46835,-1.24893 0.15612,-0.31224 0.31223,-0.62448 0.62447,-0.7806 0.46835,0 0.9367,0.31224 1.40506,0.46836 0.31223,0 0.78059,0.31224 1.24894,0.31224 0.31223,0 0.62446,-0.62448 1.09282,-0.7806 0.31223,0 0.78059,0 1.09282,0.15612 0.31224,0.15612 0.31224,0.62448 0.62447,0.93671 0.15611,0.15612 0.46835,0.31223 0.78059,0.31223 0.78058,-0.15611 1.71729,-0.15611 2.34176,-0.62446 0.31224,-0.15613 0.15611,-0.7806 0.46835,-0.93671 0.31223,0 0.46836,0.62447 0.78059,0.78058 0.46835,0.15613 1.24893,0.15613 1.71729,0.31224 0.46835,0.15612 0.62447,0.78059 0.9367,0.62447 0.78059,-0.15612 1.56118,-0.62447 2.02953,-1.24894 0.31223,-0.46835 0,-1.24894 0.31223,-1.56117 0.31224,-0.46836 0.93671,-0.46836 1.24894,-0.78059 1.09283,-0.46835 2.18565,-0.78059 2.96624,-1.56118 0.31223,-0.15611 0.15611,-0.62446 0.15611,-0.9367 0,-0.31224 -0.46835,-0.31224 -0.46835,-0.46835 0,-0.31224 0.31224,-0.78059 0.62447,-0.78059 0.31224,0 0.62448,0.78059 0.78059,0.46835 0.31224,-0.31223 -0.15611,-0.9367 0,-1.56117 0,-0.15611 0.15612,-0.46836 0.31224,-0.78059 0.46835,-0.62447 0.93671,-1.24894 1.56117,-1.87341 0.46835,-0.62447 1.24894,-1.24894 1.71729,-1.87341 0.15612,-0.31223 0.15612,-0.78059 0.46835,-1.09282 0.62447,-0.78059 1.40506,-1.71729 2.02953,-2.49788 0.78058,-0.78058 1.56118,-1.40506 2.02953,-2.18564 0.46835,-0.78059 0.46835,-1.71729 0.62447,-2.654 0.15611,-0.62447 0,-1.40505 0.15611,-2.18564 0.15613,-0.7806 0.31223,-1.56118 0.78059,-2.18565 0.31224,-0.93671 0.93671,-1.71729 1.40506,-2.49788 0.46835,-0.46835 1.09282,-0.9367 1.24894,-1.56117 0.31224,-0.62447 0,-1.40506 0.15612,-2.02953 0.15612,-1.40505 0.62447,-2.654 1.09282,-3.74682 0.31223,-1.09283 0.93671,-2.02953 1.24894,-2.96623 0.15612,-0.31224 0.46835,-0.62447 0.46835,-0.93671 0,-0.62447 -0.31223,-1.09282 -0.31223,-1.71729 0,-0.46835 0.46835,-0.93671 0.46835,-1.40506 -0.15612,-0.78058 -0.78059,-1.40505 -0.78059,-2.18564 0,-0.62447 0.31224,-1.40506 0.62447,-2.02953 0.15612,-1.09282 0.78059,-2.02953 0.78059,-2.96622 0,-0.93671 -0.93671,-1.56118 -0.93671,-2.49789 0,-0.78059 0.62448,-1.56117 0.93671,-2.34176 0.15612,-0.46835 0.15612,-0.9367 0.31223,-1.24894 0.31224,-0.31223 0.93671,-0.46835 0.93671,-0.78059 0,-0.46835 -0.62447,-0.78058 -0.62447,-1.24893 0,-0.31224 0.46835,-0.78059 0.78059,-0.62447 0.62447,0.31223 0.31223,1.40505 0.9367,1.71728 0.46835,0.31225 1.24893,-0.15611 1.71729,-0.46835 0.46835,-0.31223 0.78059,-0.9367 1.24894,-1.24893 0.78059,-0.78059 1.71729,-1.09283 2.34176,-1.87342 0.62447,-0.62446 0.93671,-1.56116 1.40506,-2.34176 v -0.15611 c 0,-0.46836 0.15612,-1.09283 0.31224,-1.56118 0.15611,-0.46835 0.62446,-0.93671 0.78059,-1.56117 0.15611,-0.31224 -0.15613,-0.62447 0,-0.7806 0.31223,-0.1561 0.62447,0.46836 0.78058,0.31225 0.46835,-0.31225 0.46835,-1.09283 0.78059,-1.56118 0.46835,-0.46835 1.09282,-0.9367 1.71729,-1.40506 0.9367,-0.9367 1.87341,-1.87341 2.96623,-2.65399 0.46835,-0.31224 0.9367,-0.62447 1.40505,-1.09283 0.31224,-0.31223 0.15613,-0.93671 0.46836,-1.24893 0.31224,-0.15613 0.78059,0 1.09283,-0.15613 0.31223,-0.31223 0.62446,-0.62446 0.78058,-1.09281 0.15612,-0.15613 -0.15612,-0.62448 0,-0.93671 0.62447,-0.78059 1.56118,-1.24894 2.18564,-2.02953 0.62448,-0.62447 1.24895,-1.40506 1.56118,-2.18564 0.62447,-0.93671 0.78059,-1.87341 1.24894,-2.96623 0.46835,-1.09282 1.09282,-2.18565 1.40505,-3.43458 0.15613,-1.24894 0.15613,-2.49789 0,-3.59071 0,-1.56118 0,-2.96623 -0.15611,-4.5274 -0.15612,-0.78059 -0.31224,-1.71729 -0.46836,-2.654 -0.15611,-0.62447 -0.15611,-1.24894 -0.31223,-2.02953 -0.46835,-1.24894 -0.9367,-2.49788 -1.56117,-3.5907 -0.31224,-0.46835 -0.78059,-0.78058 -1.24895,-0.93671 -1.24894,-0.46835 -2.49787,-0.62447 -3.74681,-0.78058 -0.93671,-0.15612 -1.87341,0.31223 -2.81011,0.15611 -1.09283,-0.31223 -2.02953,-1.09282 -2.96624,-1.56117 -1.09282,-0.78059 -1.87341,-1.56118 -2.81011,-2.18564 -1.09282,-0.78059 -2.02952,-1.56118 -2.96623,-2.49788 -0.93671,-0.78058 -1.71729,-1.71729 -2.654,-2.654 -0.78059,-0.62447 -1.56118,-1.40506 -2.49788,-1.8734 -0.9367,-0.62448 -2.18564,-0.62448 -3.27847,-1.09284 -0.62446,-0.46835 -1.24894,-1.09281 -2.02952,-1.40505 -0.93671,-0.31224 -1.87341,-0.31224 -2.81011,-0.46835 -0.93671,0 -2.02953,0.15611 -2.96624,0.31224 -0.62446,0.15611 -1.24894,0.78058 -2.02952,0.78058 -0.78059,-0.15612 -1.40506,-0.93671 -2.18565,-1.24894 -0.46835,-0.15612 -1.09282,-0.46835 -1.7173,-0.46835 -0.62446,-0.15612 -1.40505,0.31223 -2.02952,0.15612 -0.31224,-0.15612 -0.46835,-0.78059 -0.78059,-0.78059 -0.62446,-0.31224 -1.40505,0 -2.02952,-0.15612 -0.31223,-0.15612 -0.31223,-0.78059 -0.62448,-0.9367 -0.78058,-0.31224 -1.71729,-0.31224 -2.49787,-0.62447 -0.15612,0 -0.31224,-0.46835 -0.62447,-0.46835 -0.31223,0.15612 -0.15612,0.9367 -0.46836,1.09282 -0.46835,0.15611 -0.9367,-0.15612 -1.24893,-0.46835 -0.31224,-0.15612 -0.15613,-0.9367 -0.46836,-0.7806 -0.46835,0.31225 -0.31223,1.09283 -0.62447,1.56119 -0.31223,0.15611 -0.62446,0.15611 -0.9367,0 -0.31223,0 -0.62447,-0.31224 -0.78059,-0.46836 -0.31223,-0.15612 -0.62447,-0.31223 -0.9367,-0.15612 -0.31223,0.46835 -0.31223,1.24894 -0.46836,1.87341 -0.31223,0.46835 -0.46835,0.9367 -0.9367,1.40506 -0.31223,0.31223 -0.9367,0.46835 -1.24894,0.9367 -0.31223,0.62447 -0.15612,2.654 -0.46836,2.02953 -0.31223,-0.78059 0,-1.7173 0.31224,-2.49788 0,-0.31223 0.31224,-0.78058 0.46836,-1.24894 0.15611,-0.31223 0,-0.62447 0.15611,-0.9367 0.15612,-0.46836 0.46836,-0.9367 0.78059,-1.40506 0.15612,-0.31223 0.46835,-0.62447 0.78059,-0.9367 0.15611,-0.15613 0.62447,-0.31223 0.62447,-0.46836 -0.15612,-0.31223 -0.46836,-0.62447 -0.78059,-0.62447 -0.31224,0.15612 -0.62447,0.9367 -0.9367,0.62447 -0.31224,-0.15612 0.15611,-0.62447 0.31223,-0.9367 0.15612,-0.31223 0.62447,-0.46836 0.62447,-0.78059 0,-0.46835 -0.31224,-0.78059 -0.62447,-1.09282 -0.15612,-0.15612 -0.62447,0 -0.78059,-0.15612 -0.31223,-0.46835 -0.46835,-1.09281 -0.78058,-1.40505 -0.15613,-0.15612 -0.46836,0 -0.62447,-0.15612 -0.31224,0 -0.46835,-0.46835 -0.78059,-0.31224 -0.46835,0 -0.78059,0.31224 -0.9367,0.7806 -0.15613,0.46835 0.62446,1.24893 0.15611,1.40505 -0.62447,0.15611 -0.9367,-0.78059 -1.09282,-1.24894 -0.15612,-0.46835 0.62447,-0.78059 0.62447,-1.24895 -0.15612,-0.31223 -0.46835,-0.46834 -0.93671,-0.46834 -0.15611,-0.15612 -0.15611,0.31223 -0.31224,0.31223 -0.31223,-0.15612 0,-0.78059 -0.31223,-0.78059 -0.46835,-0.15611 -0.9367,0.31224 -1.40505,0.31224 -0.46835,0 -0.93671,-0.62447 -1.40506,-0.62447 -0.15612,0 -0.31223,0.62447 -0.46835,0.46835 -0.31223,-0.31223 0,-1.09282 -0.31223,-1.24894 -0.46836,-0.15611 -0.93671,0.78059 -1.40506,0.62447 -0.46836,-0.15611 -0.46836,-1.24894 -1.09283,-1.56117 -0.78058,-0.46835 -1.56117,-0.46835 -2.49787,-0.62447 -0.78059,-0.31223 -1.56118,-0.78059 -2.34177,-0.93671 -0.31224,0 0.46835,0.78059 0.15612,0.62448 -0.62446,0 -1.24894,-0.7806 -1.87341,-0.93671 -0.46835,0 -0.62447,0.62447 -0.78059,0.62447 -0.46835,0.31224 -0.9367,0.15611 -1.24894,0.46835 -0.46835,0.15612 -0.62447,0.62447 -0.9367,0.9367 -0.46835,0.46835 -0.93671,0.93671 -1.40506,1.40506 -0.31223,0.31224 -0.93671,0.62447 -0.93671,0.93671 0,0.78058 1.40506,1.24894 0.93671,1.71729 -0.31223,0.46835 -1.09282,-0.62447 -1.56117,-0.62447 -0.62447,0.15612 -0.93671,0.93671 -1.40506,1.24894 -0.31224,0.15612 -0.46835,0 -0.62447,0 -0.62447,0 -1.24893,-0.15612 -1.87341,0.15612 -0.62447,0.15611 -1.09282,0.9367 -1.71729,1.24894 -0.46836,0.15611 -0.9367,0 -1.40505,0 -0.62448,0 -1.24895,-0.46835 -1.87342,-0.31224 -0.46835,0.31224 -0.31223,1.56117 -0.93671,1.40506 -0.9367,0 -1.09282,-1.56117 -1.8734,-1.7173 -0.46836,-0.15611 -0.46836,1.09282 -0.93671,1.24895 -0.46835,0.15611 -0.78058,-0.46836 -0.78058,-0.93671 0.15611,-0.46835 1.09282,-0.46835 1.40506,-1.09282 0.15611,-0.46836 0.15611,-1.24894 0,-1.71729 -0.15613,-0.46836 -0.31224,-1.09283 -0.78059,-1.09283 -1.24894,0 -2.34176,0.78059 -3.59071,1.24894 -1.09281,0.31224 -2.34176,0.93671 -3.43458,1.09282 -0.78059,0.15613 -1.56118,0.46836 -2.18564,0 -0.31224,-0.15611 0.46835,-0.78058 0.78058,-0.9367 0.78059,-0.31223 1.87341,0.15612 2.654,-0.31223 0.62447,-0.62447 0.62447,-1.56118 0.9367,-2.49789 0,-0.15611 0,-0.46835 0.15613,-0.62446 0.62446,-1.09283 1.24893,-2.34176 2.02952,-3.27847 0.9367,-1.24894 1.87341,-2.18564 2.96623,-3.27847 0.46836,-0.46835 1.24894,-0.78058 1.71729,-1.40505 0.9367,-0.78059 1.56118,-1.71729 2.18565,-2.654 0.62447,-0.78059 1.40505,-1.71729 1.56118,-2.81011 0,-0.62448 -0.46836,-1.24894 -0.93671,-1.56118 -0.93671,-0.46835 -2.02953,0.15612 -2.81012,-0.31224 -0.62447,-0.31223 -0.78058,-1.09282 -0.9367,-1.71729 -0.15612,-0.31223 0.15612,-0.62447 0.15612,-1.09282 -0.15612,-0.62446 -0.46835,-1.24894 -0.78059,-1.8734 -0.46835,-0.93671 -0.93671,-1.7173 -1.24894,-2.81012 -0.15612,-0.9367 -0.15612,-1.87341 -0.31224,-2.81012 -0.15611,-0.62446 0,-1.40506 -0.31223,-2.02952 -0.46835,-0.93671 -1.09282,-2.34176 -2.18565,-2.49788 -0.62446,0 0.78059,1.56117 0.46835,2.18564 -0.31223,0.46836 -0.78058,-1.09282 -1.24893,-0.9367 -1.09283,0.78058 -1.7173,2.18564 -2.49788,3.27846 -0.78059,1.40506 -1.56118,2.81012 -2.34176,4.21518 -0.31224,0.78058 -0.62448,1.40506 -0.93671,2.02952 -0.31224,0.62448 -0.31224,1.40506 -0.78059,1.71729 -0.62447,0.46836 -1.56117,0.78059 -2.34176,0.62447 -0.78059,-0.15611 -0.9367,-1.09282 -1.56117,-1.24894 -0.31223,-0.15611 -0.62447,0.46835 -0.93671,0.46835 -0.31223,0 -0.62447,-0.62446 -0.9367,-0.62446 -0.93671,0.15611 -1.40506,1.24894 -2.18564,1.24894 -0.78059,0.15611 -1.24894,-0.62448 -2.02954,-0.93671 -0.15611,0 -0.46835,0.46835 -0.62446,0.31223 -0.78059,-0.46835 -1.24895,-1.8734 -2.18565,-1.8734 -1.24894,-0.15612 -2.49787,1.24894 -3.74681,1.40505 -0.62448,0 -1.09283,-1.09282 -1.56118,-0.9367 -0.78059,0.15612 -1.40506,0.78059 -1.56118,1.56117 0,0.78059 1.09283,1.40506 1.09283,2.18565 0,0.31223 -0.62447,0.62447 -0.93671,0.46835 -0.78058,-0.31224 -1.24893,-1.40506 -2.02952,-1.56118 -0.31225,-0.15611 0.31223,0.78059 0,1.09283 -0.31225,0.31223 -1.09283,0.62447 -1.7173,0.62447 -0.46835,0 -0.9367,-0.62447 -1.56117,-0.62447 -0.78059,-0.15612 -1.87341,-0.31224 -2.654,0.15611 -0.31223,0.15612 0.46836,0.93671 0,1.09283 -0.78059,0.46835 -2.02952,0 -2.96623,0.31223 -0.31223,0 0.31223,0.62447 0,0.78059 -0.46835,0.15612 -0.93671,-0.46835 -1.24894,-0.31223 -0.9367,0.46835 -1.09282,1.71729 -2.02953,2.02952 -0.62447,0.31224 -1.56116,-0.15612 -2.18564,-0.46835 -0.93671,-0.46835 -1.87341,-1.09282 -2.49788,-1.87341 -0.46835,-0.46835 -0.62447,-1.09282 -0.78059,-1.71729 0,-0.62447 0.62447,-1.24894 0.46835,-1.87341 -0.15611,-0.46836 -1.09282,-0.62447 -1.24893,-1.09282 -0.31224,-0.78059 -0.46836,-1.87341 -0.46836,-2.654 0.15612,-0.46835 0.78059,-0.62447 0.93671,-0.93671 0.31223,-0.46834 -0.15612,-0.9367 0.15612,-1.40505 0.46835,-0.62447 1.56117,-0.62447 1.71729,-1.24894 0.31223,-0.93671 -0.31224,-1.71729 -0.46836,-2.654 -0.15611,-0.62447 -0.46835,-1.24894 -0.62447,-1.71729 -0.31223,-0.31223 -0.46835,-0.78059 -0.78058,-0.9367 -0.31224,-0.15612 -0.93671,0.15611 -1.24894,-0.15612 -0.62447,-0.62447 -0.9367,-1.405061 -0.9367,-2.185648 -0.15613,-0.624466 0.62446,-1.09282 0.46835,-1.717292 -0.15612,-0.312234 -0.78059,-0.624467 -1.24895,-0.624467 -0.46835,0.156113 -0.62446,0.780587 -1.09282,1.092819 -0.31223,0.15612 -0.62447,0.15612 -0.9367,0 -0.46835,-0.156113 -0.78059,-1.092819 -0.9367,-0.780586 -0.31224,0.468354 0.46835,0.936706 0.46835,1.40506 0.15612,0.468353 0.15612,0.9367 -0.15612,1.248939 -0.46836,0.624467 -1.09282,1.092825 -1.87341,1.405055 -0.78058,0.46835 -1.87341,0.46835 -2.654,0.93671 -0.46835,0.31223 -0.46835,1.09282 -0.93671,1.40505 -0.62446,0.31224 -1.56116,0.31224 -2.18563,0.46836 -0.93671,0.15611 -1.71729,-0.31224 -2.49789,0 -0.78059,0.31223 -1.40505,0.78058 -1.8734,1.40505 -0.15612,0.46835 0.31223,0.93671 0.15611,1.40506 -0.15611,0.31223 -0.62447,0.15611 -0.78058,0 -0.46835,-0.31223 -0.62448,-1.09283 -1.09283,-1.24894 -0.46835,-0.31223 -1.09281,0 -1.56117,-0.15612 -0.9367,-0.15611 -1.8734,-0.46835 -2.654,-0.93671 -0.62446,-0.31223 -0.78059,-1.56117 -1.56117,-1.56117 -0.78059,0 -1.56118,0.93671 -2.02953,1.71729 -0.31223,0.46836 -0.15612,1.40506 0.31224,1.7173 0.62446,0.46835 1.71729,-0.31224 2.34176,0.31223 0.46835,0.31223 0.31224,1.09283 0.15611,1.71729 -0.15611,0.46836 -0.46835,0.78059 -0.78058,1.24894 -0.15613,0.46836 -0.46836,0.93671 -0.46836,1.56118 0,0.78058 0.15613,1.40506 0.31223,2.18564 0.15613,0.46835 0.31225,0.78059 0.62448,1.09282 0.15612,0.31224 0.62447,0.31224 0.93671,0.31224 0.31223,0.15611 0.78058,0.62447 1.24894,0.46835 0.31223,0 0.62447,-0.62447 0.93669,-0.62447 0.62448,0.15612 1.40507,0.93671 0.93671,1.24894 -0.78058,0.78059 -2.18563,0 -2.96623,0.78059 -1.09282,0.78058 -0.78059,2.81011 -1.8734,3.5907 -0.46836,0.46835 -0.46836,-1.24894 -1.09283,-1.24894 -0.62447,0 -0.78059,1.09282 -1.24894,1.56118 -1.09282,0.9367 -2.18564,1.56117 -3.12235,2.34176 -0.46835,0.46835 -0.62447,1.71729 -1.24893,1.56117 -0.7806,0 -0.31224,-1.40505 -0.93671,-1.87341 -0.46835,-0.31223 -1.09282,-0.46835 -1.56118,0 -0.46835,0.46836 0,2.02953 -0.78058,2.02953 -1.09283,0.15612 -1.71729,-1.09282 -2.654,-1.71729 -0.78059,-0.46836 -1.7173,-0.78059 -2.18565,-1.56118 -0.31223,-0.31223 0.15612,-0.9367 0,-1.40506 -0.62446,-1.24894 -1.09282,-2.96623 -2.34176,-3.43458 -0.9367,-0.31224 -1.09282,1.87341 -2.02952,2.02953 -0.62448,0.15611 -0.78059,-1.09283 -1.40506,-1.40506 -0.46836,-0.15612 -1.09282,-0.15612 -1.24894,0.31223 -0.15612,0.46836 1.09282,1.40506 0.46835,1.56118 -2.02953,0.78059 -4.21517,0.31224 -6.40081,0.31224 -0.78059,0 -2.02953,-0.62448 -2.34177,0.15611 -0.46835,1.24894 -0.15611,2.81012 0.46836,4.21517 0.15612,0.46836 1.09282,0 1.56117,0 0.46835,-0.15611 0.93671,-0.46835 1.24894,-0.15611 0.46835,0.31223 0.31224,1.09282 0.31224,1.56117 -0.15612,0.46836 -0.46835,1.09282 -0.93671,1.09282 -0.46835,0 -0.78058,-1.09282 -1.40506,-1.09282 -0.78058,0.15612 -1.8734,0.62447 -2.18564,1.40506 -0.46835,1.24894 -0.15612,2.654 0,3.90293 0.15612,0.46836 0.46835,0.78059 0.9367,1.24894 0.31224,0.15612 0.93671,0.15612 1.09283,0.62448 0.46835,0.46835 0.31223,1.09282 0.62447,1.71729 0.15612,0.46834 0.62447,0.78058 0.62447,1.24894 0,0.78059 -0.46835,1.40505 -0.46835,2.18564 0,0.62447 0.31223,1.40506 0.15611,2.02952 -0.46835,3.43459 -1.09282,7.0253 -1.87341,10.45987 -0.31223,1.40506 -0.31223,3.12236 -1.24894,4.05906 -0.46835,0.46835 -1.24894,-1.24894 -1.87341,-1.09282 -0.9367,0.15612 -1.24894,1.40506 -2.18564,1.56117 -0.46835,0.15612 -0.93671,-0.78059 -1.40506,-0.62447 -0.46835,0 -0.62447,0.62447 -1.09282,0.78059 -0.46835,0.31223 -1.09282,-0.15612 -1.56118,0 -0.9367,0.46835 -1.56117,1.24894 -2.34176,1.87341 -0.78058,0.62447 -1.71729,0.9367 -2.34176,1.71728 -0.78059,0.7806 -1.24894,1.87342 -1.56118,2.81013 -0.312228,0.78058 -0.468342,1.56117 -0.624462,2.34176 0,0.62447 0.15612,1.24893 0,1.87341 -0.15612,0.78058 -0.15612,1.71728 -0.780586,2.34176 -0.31224,0.62447 -1.40506,0.31223 -1.717293,0.93671 -0.468353,0.78058 -0.312233,1.71729 -0.312233,2.49787 0,0.46835 0.312233,1.09282 0,1.40505 -0.31224,0.46836 -1.092827,0.15613 -1.24894,0.62448 -0.156119,0.31223 0.156113,0.78058 0.312233,1.09282 0.312234,0.31223 0.780587,0.31223 1.09282,0.62447 0.31224,0.31223 0.15612,0.9367 0.31224,1.24894 0.156113,0.46835 0.312233,0.9367 0.624467,1.24894 z M 217.9209,131.00662 c 0.46835,-0.78059 0.93671,-1.7173 1.56118,-2.49788 0.46835,-0.46835 1.24894,-1.87341 1.71729,-1.40506 0.62447,0.78059 -0.15612,2.02953 -0.46835,2.81011 -0.31224,0.93671 -0.93671,1.87342 -1.71729,2.49789 -0.62448,0.62446 -1.71729,2.18564 -2.34177,1.40505 -0.78058,-0.78059 0.78059,-1.87341 1.24894,-2.81011 z m 5.15188,-2.18565 c -0.15612,0.62447 0.46835,1.24895 0.46835,1.87341 -0.15612,0.62447 -0.9367,0.9367 -0.9367,1.40506 -0.15612,0.78059 0,1.71729 0.46835,2.34176 0.31223,0.31224 1.09282,0 1.40505,0.31224 0.31224,0.31224 -0.31223,0.9367 0,1.09282 0.78059,0.31223 1.56118,0 2.18565,0.15612 0.46835,0 0.78059,0.46835 1.24894,0.31223 0.31223,0 0.15612,-0.62447 0.46835,-0.93671 0.62448,-0.31222 1.24894,-0.15611 1.7173,-0.46835 0.62447,-0.15611 0.93671,-0.78058 1.56117,-0.78058 0.31223,0 0.46835,0.62447 0.9367,0.62447 0.31224,0 0.78059,-0.31224 0.93671,-0.7806 0,-0.46834 -0.78058,-1.24893 -0.46835,-1.71728 0.46835,-0.78059 1.71729,-0.78059 2.34176,-1.56118 0.62447,-0.78059 2.02953,-1.87341 1.40506,-2.81011 -0.78059,-1.09282 -2.81012,-1.40506 -4.05905,-0.78059 -0.93671,0.62447 0,2.49788 -0.7806,3.43459 -0.31223,0.46835 -0.62446,-1.09283 -0.62446,-1.7173 0,-0.31223 0.78058,-0.15611 0.78058,-0.46835 0,-0.46835 -0.31223,-0.9367 -0.62446,-1.09282 -1.09283,-0.46835 -2.18565,-0.31224 -3.27848,-0.31224 -0.93669,-0.15611 -2.02953,-0.15611 -2.96623,0 -0.46835,0.15612 -0.78059,0.62447 -1.24893,0.93671 -0.31224,0.31223 -0.93671,0.46835 -0.93671,0.9367 z m 2.96623,-2.81011 c 0.93671,-0.15612 1.87341,0.15611 2.49788,-0.31224 0.46836,-0.31223 0.9367,-1.24894 0.62447,-1.56117 -0.78059,-0.62447 -2.02953,0.15612 -2.81011,-0.31223 -0.31224,-0.31224 0.93671,-1.40506 0.46835,-1.40506 -0.93671,0 -1.71729,0.62447 -2.34177,1.24894 -0.46834,0.31223 -0.9367,0.78058 -0.9367,1.40506 -0.15612,0.46835 0,1.09281 0.46836,1.24894 0.31223,0.15611 0.31223,-0.62448 0.46834,-0.93671 0.31224,-0.31223 0.31224,-0.78059 0.78059,-0.93671 0.15612,-0.15611 0.62447,0.15612 0.46836,0.46836 0,0.46835 -0.93671,0.78058 -0.78059,1.09282 0,0.46835 0.78059,0 1.09282,0 z m -4.21517,-0.15612 c -0.62447,0.15612 -0.31223,1.56118 0,2.02953 0.31223,0.46835 1.24894,0.15612 1.24894,-0.15612 0,-0.78059 -0.46835,-2.02953 -1.24894,-1.87341 z"
     id="path1-5"
     style="fill:none;stroke:#000000;stroke-width:3.07135;stroke-dasharray:none;stroke-opacity:0.69999999" />
</svg>
